<?xml version="1.0" standalone="no"?>
<!DOCTYPE svg PUBLIC "-//W3C//DTD SVG 20010904//EN"
 "http://www.w3.org/TR/2001/REC-SVG-20010904/DTD/svg10.dtd">
<svg version="1.0" xmlns="http://www.w3.org/2000/svg"
 width="300.000000pt" height="450.000000pt" viewBox="0 0 300.000000 450.000000"
 preserveAspectRatio="xMidYMid meet">
<metadata>
Created by potrace 1.10, written by Peter Selinger 2001-2011
</metadata>
<g transform="translate(0.000000,450.000000) scale(0.100000,-0.100000)"
fill="#000000" stroke="none">
<path d="M1445 4180 c-50 -25 -65 -49 -72 -115 -5 -45 -1 -61 25 -111 17 -33
32 -81 35 -107 3 -26 13 -57 22 -67 17 -19 16 -20 -15 -37 -58 -32 -80 -54
-100 -98 -51 -112 -50 -213 3 -317 39 -77 90 -108 174 -108 127 0 188 72 214
255 17 122 -40 241 -128 269 -22 7 -26 25 -9 38 5 3 10 28 11 55 2 49 10 79
39 145 34 79 15 156 -48 193 -52 30 -98 32 -151 5z m162 -44 c42 -46 44 -95 7
-168 -15 -30 -28 -76 -32 -110 -2 -32 -11 -63 -18 -69 -16 -13 -104 -3 -104
12 0 5 5 9 10 9 6 0 10 5 10 10 0 6 -6 10 -14 10 -26 0 -30 23 -8 41 26 21 28
39 5 39 -11 0 -29 20 -45 50 -38 67 -38 127 -1 170 34 41 58 51 113 46 35 -3
51 -11 77 -40z m0 -429 c45 -20 78 -60 69 -83 -3 -7 0 -13 6 -11 7 1 18 -20
25 -48 11 -40 11 -64 1 -124 -7 -41 -17 -79 -23 -85 -5 -7 -17 -25 -25 -40
-23 -45 -60 -66 -121 -71 -78 -6 -136 23 -166 85 -26 54 -35 78 -38 105 -1 11
-3 25 -5 30 -9 23 13 121 36 165 48 92 142 122 241 77z"/>
<path d="M1453 4140 c-21 -13 -36 -32 -44 -59 -11 -37 -9 -44 18 -97 44 -84
54 -81 51 13 l-3 78 48 3 c36 2 49 -1 53 -13 8 -21 -13 -95 -27 -95 -7 0 -8 8
-4 18 3 9 9 29 12 45 5 26 4 27 -32 27 l-38 0 7 -62 c3 -34 7 -62 9 -63 1 -1
18 -5 37 -8 34 -5 36 -4 58 47 26 61 28 113 4 142 -38 47 -96 57 -149 24z m94
-10 c7 0 17 -8 22 -17 8 -16 4 -18 -40 -15 -56 4 -79 -11 -79 -53 0 -36 -15
-24 -18 14 -4 47 39 85 83 76 11 -3 25 -5 32 -5z"/>
<path d="M1492 3899 c2 -6 7 -10 11 -10 4 1 21 1 38 1 17 0 28 4 24 10 -8 14
-78 13 -73 -1z"/>
<path d="M1523 3873 c-46 -6 -44 -33 2 -33 19 0 35 2 35 4 0 2 3 11 6 20 3 9
2 15 -2 14 -5 0 -24 -3 -41 -5z"/>
<path d="M1522 3674 c13 -47 -12 -79 -55 -70 -20 4 -37 0 -54 -14 -14 -11 -22
-20 -17 -20 5 0 17 7 27 14 9 7 28 11 41 9 25 -5 93 33 82 45 -3 3 8 14 25 24
17 11 29 21 26 24 -3 3 -17 -2 -31 -11 -25 -17 -26 -16 -36 9 -14 38 -20 32
-8 -10z"/>
<path d="M1479 3676 c9 -11 8 -17 -4 -29 -19 -19 -19 -28 -1 -21 27 10 30 64
4 64 -6 0 -6 -5 1 -14z"/>
<path d="M1576 3623 c12 -2 30 -14 40 -25 19 -21 19 -21 -1 -14 -11 4 -34 10
-50 13 -26 4 -33 1 -43 -21 -11 -24 -16 -26 -46 -21 -41 8 -72 0 -80 -22 -6
-14 -3 -13 20 2 19 12 36 15 62 10 30 -6 38 -3 56 20 21 26 21 26 65 10 54
-19 50 -19 44 5 -7 26 -41 50 -68 49 -19 -2 -19 -2 1 -6z"/>
<path d="M1540 3530 c-12 -16 -29 -30 -38 -30 -13 0 -14 -2 -3 -12 10 -11 18
-7 40 20 15 17 33 32 39 32 7 0 12 5 12 10 0 21 -29 9 -50 -20z"/>
<path d="M1612 3528 c-51 -32 -35 -87 22 -72 14 3 26 2 26 -3 0 -10 -37 -43
-48 -43 -4 0 -20 -12 -35 -26 -35 -32 -63 -28 -59 8 2 20 -5 32 -28 48 -22 16
-30 30 -31 53 0 26 -2 28 -8 12 -12 -30 -2 -54 30 -71 38 -19 39 -46 2 -39
-23 4 -24 4 -8 -4 11 -5 28 -19 37 -30 23 -27 29 -26 62 4 37 34 52 31 26 -5
-12 -16 -17 -30 -12 -30 6 0 24 24 41 54 20 36 38 56 53 59 l23 4 -23 8 c-20
7 -23 13 -19 39 5 28 5 29 -5 9 -12 -25 -41 -38 -59 -27 -8 5 0 17 22 35 41
34 36 46 -9 17z"/>
<path d="M1411 3490 c0 -15 -5 -30 -10 -35 -5 -6 -12 -21 -16 -35 -5 -22 -4
-21 15 7 14 20 20 42 17 60 -4 27 -4 27 -6 3z"/>
<path d="M1542 3462 c9 -13 13 -33 10 -44 -3 -14 -1 -19 6 -14 19 11 14 41
-10 62 l-22 19 16 -23z"/>
<path d="M1399 3368 c-12 -22 -11 -22 8 -5 11 9 23 17 27 17 4 0 25 -18 47
-41 32 -33 45 -40 65 -35 18 5 24 2 24 -9 0 -9 4 -14 10 -10 5 3 6 13 3 21 -4
11 -13 14 -31 9 -20 -5 -32 1 -64 34 -44 46 -72 52 -89 19z"/>
<path d="M1426 3343 c-3 -3 -6 -11 -6 -17 0 -7 3 -7 8 1 5 8 19 2 44 -23 20
-18 42 -34 50 -34 7 0 1 8 -12 17 -14 9 -29 23 -33 30 -11 17 -43 34 -51 26z"/>
<path d="M638 3118 c-36 -7 -68 -40 -68 -69 0 -10 -4 -19 -9 -19 -16 0 -23
-38 -11 -61 9 -16 9 -27 0 -45 -10 -18 -10 -29 -1 -53 10 -22 10 -34 1 -51 -9
-16 -9 -29 -1 -48 7 -17 8 -39 3 -57 -6 -18 -5 -39 2 -53 7 -17 7 -29 -1 -41
-12 -19 -12 -33 2 -63 4 -10 3 -30 -3 -45 -6 -19 -6 -36 1 -51 8 -17 8 -29 0
-42 -12 -18 -11 -32 1 -62 4 -9 3 -32 -2 -52 -6 -22 -7 -38 -1 -42 13 -7 11
-48 -2 -61 -8 -8 -7 -20 5 -44 14 -28 14 -34 1 -49 -12 -13 -12 -23 -3 -53 8
-28 8 -43 0 -62 -9 -20 -9 -30 0 -45 10 -15 9 -24 -2 -45 -12 -22 -12 -30 -1
-47 10 -16 10 -26 0 -50 -9 -22 -9 -35 0 -55 9 -19 9 -29 0 -39 -7 -8 -9 -32
-5 -61 4 -26 2 -54 -3 -62 -6 -10 -5 -24 5 -42 9 -18 10 -30 4 -34 -13 -8 -13
-51 0 -76 8 -13 7 -19 0 -19 -6 0 -9 -4 -5 -9 3 -5 1 -12 -5 -16 -6 -4 -7 -11
-4 -17 6 -9 14 -107 13 -155 0 -7 0 -29 0 -48 0 -19 0 -42 0 -50 0 -8 0 -31 0
-50 0 -19 0 -43 0 -52 0 -10 0 -54 0 -98 1 -44 1 -88 1 -97 -1 -33 -1 -78 -1
-90 1 -7 -2 -29 -5 -49 -4 -25 -1 -40 9 -51 9 -8 22 -30 30 -49 8 -19 21 -40
30 -47 12 -11 186 -13 899 -12 l883 0 25 25 25 25 1 833 c1 457 4 960 7 1117
13 561 13 554 -36 582 -17 10 -204 13 -884 13 -474 0 -877 -3 -895 -7z m1785
-49 c3 -12 1 -299 -5 -638 -5 -339 -8 -892 -6 -1229 1 -336 0 -612 -4 -612 -5
0 -8 -6 -8 -12 0 -10 -185 -13 -890 -13 l-890 0 0 37 c0 31 -4 37 -31 47 -24
8 -30 15 -27 33 2 14 11 24 23 26 17 3 17 1 5 -7 -12 -9 -11 -11 6 -11 34 0
29 44 -7 57 -25 10 -28 15 -20 35 4 12 18 24 30 26 29 5 24 34 -7 42 -27 6
-28 7 -20 37 4 15 14 23 27 23 31 0 25 27 -8 35 -22 5 -29 12 -28 31 0 20 6
26 28 31 37 7 37 29 0 36 -22 5 -29 11 -29 31 0 19 7 26 29 31 37 8 37 31 0
38 -22 5 -28 11 -28 31 0 16 6 26 19 29 14 4 18 1 14 -9 -3 -8 0 -14 7 -14 8
0 13 13 12 32 0 28 -4 33 -26 36 -21 2 -26 9 -26 28 0 17 5 24 18 24 11 0 19
-6 20 -12 0 -7 5 -2 10 11 13 34 4 51 -26 51 -25 0 -37 19 -12 21 9 0 10 2 0
6 -23 9 -14 25 11 21 16 -3 27 0 30 9 12 32 6 43 -24 43 -28 0 -44 19 -17 21
9 0 10 2 0 6 -24 9 -13 24 15 21 23 -3 27 1 30 25 3 24 0 27 -26 27 -25 0 -29
4 -29 26 0 22 3 25 22 21 19 -3 24 1 27 24 4 24 1 28 -20 31 -17 2 -26 10 -28
26 -3 18 1 22 21 22 21 0 25 5 25 30 0 25 -4 30 -23 30 -16 0 -23 6 -23 20 0
14 7 20 23 20 19 0 23 5 23 30 0 25 -4 30 -25 30 -14 0 -25 5 -25 10 0 6 6 10
13 10 8 0 7 3 -3 10 -12 8 -12 10 2 15 10 4 22 4 28 0 6 -4 10 6 10 24 0 27
-4 31 -27 32 -16 0 -23 3 -16 5 7 3 9 12 6 20 -3 9 2 14 16 14 17 0 21 6 21
30 0 26 -4 30 -27 30 l-28 1 30 15 c22 11 24 13 8 10 -13 -2 -26 0 -29 5 -3 5
6 9 20 9 23 0 26 4 26 34 0 30 -2 33 -25 28 -15 -2 -25 0 -25 7 0 6 15 12 33
12 l32 2 -35 7 c-31 7 -32 7 -7 9 24 1 27 5 27 36 0 33 -2 35 -25 29 -15 -4
-25 -2 -25 5 0 6 15 12 33 12 l32 2 -35 7 c-27 5 -31 8 -18 14 9 4 22 5 28 1
6 -4 10 7 10 29 0 32 -3 36 -27 37 l-28 2 28 4 c15 2 27 8 27 12 0 5 -11 6
-25 3 -15 -2 -25 0 -25 7 0 6 11 11 25 11 21 0 25 5 25 30 0 25 -4 30 -23 30
-16 0 -23 6 -23 20 0 14 7 20 23 20 19 0 23 5 23 30 0 25 -4 30 -25 30 -34 0
-32 20 3 21 l27 1 -30 8 -30 8 28 1 c23 1 27 5 27 31 0 25 -4 30 -25 30 -34 0
-32 20 3 21 l27 1 -30 7 c-21 4 -26 9 -17 15 7 4 19 5 27 2 11 -4 15 2 15 24
0 23 -5 30 -19 30 -32 0 -35 20 -4 21 l28 2 -28 4 c-30 5 -27 23 4 23 14 0 19
7 19 25 0 18 -5 25 -19 25 -11 0 -23 5 -26 10 -3 6 -2 10 4 10 6 0 8 7 5 15
-4 10 0 15 15 15 31 0 30 47 -1 52 -13 2 -23 10 -23 18 0 8 10 16 23 18 18 3
22 10 22 43 l0 39 904 0 904 0 5 -21z"/>
<path d="M660 3020 c12 -8 12 -10 -5 -11 -20 0 -20 0 0 -8 19 -8 18 -9 -5 -13
-21 -5 -20 -5 8 -7 28 -1 32 2 32 24 0 19 -5 25 -22 25 -19 0 -20 -2 -8 -10z"/>
<path d="M646 2914 c-4 -12 -2 -15 9 -10 9 3 15 0 15 -9 0 -8 5 -15 10 -15 6
0 10 11 10 25 0 29 -34 36 -44 9z"/>
<path d="M650 2820 c0 -5 5 -10 11 -10 7 0 9 -9 6 -21 -3 -13 -1 -19 6 -16 7
2 13 16 15 30 3 22 -1 27 -17 27 -12 0 -21 -4 -21 -10z"/>
<path d="M658 2713 c14 -6 16 -33 2 -33 -5 0 -10 -4 -10 -9 0 -5 9 -7 20 -4
30 8 28 53 -2 52 -13 0 -17 -3 -10 -6z"/>
<path d="M658 2608 c17 -17 15 -26 -5 -31 -11 -3 -7 -5 10 -6 22 -1 27 3 27
24 0 19 -5 25 -22 25 -17 0 -19 -3 -10 -12z"/>
<path d="M663 2513 c17 -4 17 -7 3 -28 -14 -21 -14 -23 4 -18 30 8 27 53 -2
52 -18 -1 -19 -2 -5 -6z"/>
<path d="M665 2410 c11 -5 15 -9 8 -9 -13 -1 -5 -41 8 -41 5 0 9 14 9 30 0 25
-4 30 -22 29 -22 0 -22 -1 -3 -9z"/>
<path d="M670 2312 c0 -8 -5 -10 -12 -6 -9 6 -9 3 0 -9 8 -9 11 -21 7 -27 -3
-5 0 -10 8 -10 22 0 28 25 12 47 -9 11 -14 13 -15 5z"/>
<path d="M660 2195 c6 -8 9 -19 5 -25 -3 -5 1 -10 9 -10 9 0 16 4 16 9 0 5 3
16 6 25 5 12 0 16 -21 16 -23 0 -25 -2 -15 -15z"/>
<path d="M657 2094 c3 -8 10 -14 17 -14 6 0 4 -5 -4 -11 -12 -8 -12 -10 5 -7
11 2 21 12 23 24 2 17 -2 22 -22 22 -17 0 -23 -5 -19 -14z"/>
<path d="M658 2001 c8 -4 13 -11 13 -15 -3 -20 1 -26 14 -26 9 0 15 9 15 25 0
21 -5 25 -27 25 -19 0 -24 -3 -15 -9z"/>
<path d="M658 1903 c6 -2 12 -12 12 -22 0 -9 -6 -23 -12 -30 -11 -10 -8 -10
15 0 18 8 27 20 27 36 0 19 -5 23 -27 22 -16 0 -22 -3 -15 -6z"/>
<path d="M650 1800 c0 -6 6 -8 13 -5 6 4 3 -1 -7 -9 -18 -15 -18 -16 -2 -16
10 0 14 -5 10 -11 -4 -7 1 -10 12 -7 29 5 26 52 -3 56 -13 2 -23 -2 -23 -8z"/>
<path d="M659 1691 c11 -7 11 -9 0 -14 -11 -4 -11 -6 -1 -6 7 -1 10 -6 6 -12
-4 -7 1 -10 12 -7 11 2 20 13 22 26 3 18 -1 22 -25 22 -20 0 -24 -3 -14 -9z"/>
<path d="M658 1593 c6 -2 12 -14 11 -26 0 -21 -1 -21 -9 -2 -6 15 -9 16 -9 4
-1 -9 2 -19 5 -22 12 -11 44 13 44 33 0 15 -7 20 -27 19 -16 0 -22 -3 -15 -6z"/>
<path d="M659 1491 c8 -5 12 -18 9 -29 -4 -15 -1 -18 13 -15 12 3 19 14 19 29
0 20 -5 24 -27 24 -20 0 -24 -3 -14 -9z"/>
<path d="M659 1391 c8 -5 12 -18 8 -30 -4 -18 -2 -19 14 -10 10 5 19 19 19 29
0 15 -7 20 -27 20 -20 0 -24 -3 -14 -9z"/>
<path d="M662 1292 c16 -6 16 -10 4 -33 -13 -25 -12 -25 10 -15 15 7 24 20 24
34 0 18 -5 22 -27 21 -21 0 -24 -2 -11 -7z"/>
<path d="M665 1191 c19 -8 19 -8 0 -19 -11 -6 -15 -12 -8 -12 6 0 18 -3 27 -6
12 -5 16 0 16 20 0 22 -4 26 -27 25 -24 0 -25 -2 -8 -8z"/>
<path d="M650 1090 c0 -5 8 -7 18 -3 14 5 13 3 -3 -10 -11 -9 -15 -17 -8 -17
6 0 18 -3 27 -6 12 -5 16 0 16 20 0 21 -5 26 -25 26 -14 0 -25 -4 -25 -10z"/>
<path d="M658 993 c10 -4 10 -8 1 -19 -9 -11 -8 -14 2 -14 11 0 11 -3 -1 -11
-12 -9 -12 -10 3 -5 10 3 23 6 28 6 5 0 9 11 9 25 0 21 -5 25 -27 24 -16 0
-22 -3 -15 -6z"/>
<path d="M656 889 c3 -6 0 -15 -7 -20 -11 -7 -11 -9 3 -9 9 0 23 -3 32 -6 12
-5 16 0 16 20 0 21 -5 26 -26 26 -16 0 -23 -4 -18 -11z"/>
<path d="M650 780 c-8 -16 -8 -20 4 -20 8 0 21 -3 30 -6 12 -5 16 0 16 20 0
32 -34 36 -50 6z"/>
<path d="M654 689 c-3 -5 -2 -9 3 -9 4 0 1 -5 -7 -10 -13 -8 -13 -10 2 -10 9
0 24 -3 33 -6 13 -5 16 -2 13 16 -3 23 -33 36 -44 19z"/>
</g>
</svg>
